# xmcd CD database file
#
# Track frame offsets:
#	150
#	22600
#	41837
#	57265
#	75715
#	89610
#	110547
#	128560
#	147707
#	164915
#	179352
#	196557
#	216900
#	237972
#
# Disc length: 3462 seconds
#
# Revision: 0
# Processed by: cddbd v1.5.1PL0 Copyright (c) Steve Scherf et al.
# Submitted via: CDex 1.51
#
DISCID=c40d840e
DTITLE=五木ひろし - 五木ひろし全曲集 スーパーヒットコレクション
DYEAR=1996
DGENRE=Country
TTITLE0=女の酒場
TTITLE1=汽笛
TTITLE2=おまえとふたり
TTITLE3=そして…めぐり逢い
TTITLE4=夜空
TTITLE5=愛のバラードを…となりで
TTITLE6=酒 尽尽
TTITLE7=暖簾
TTITLE8=居酒屋
TTITLE9=ふるさと
TTITLE10=長崎から船に乗って
TTITLE11=港の五番町
TTITLE12=女・ひとり
TTITLE13=おしどり
EXTD=YEAR: 1996
EXTT0=
EXTT1=
EXTT2=
EXTT3=
EXTT4=
EXTT5=
EXTT6=
EXTT7=
EXTT8=
EXTT9=
EXTT10=
EXTT11=
EXTT12=
EXTT13=
PLAYORDER=
